<svg width="200" height="40" viewBox="0 0 200 40" fill="none" xmlns="http://www.w3.org/2000/svg">
<path d="M23.5166 13.3578H18.229V28.3203H15.1333V13.3578H9.81728V10.2621H23.5166V13.3578Z" fill="#010101"/>
<path d="M41.8987 10.2621V28.3203H38.803V20.8373H31.295V28.3203H28.1993V10.2621H31.295V17.7451H38.803V10.2621H41.8987Z" fill="#010101"/>
<path d="M50.7197 13.3578V17.7451H57.4519L58.2276 20.8408H50.7197V25.2282H59.7755V28.3239H47.624V10.2621H59.7755V13.3578H50.7197Z" fill="#010101"/>
<path d="M84.8827 25.8936C84.0216 26.7547 83.0252 27.4272 81.8902 27.9182C80.7551 28.4093 79.5346 28.6548 78.2287 28.6548C76.9228 28.6548 75.7201 28.4093 74.5779 27.9182C73.4357 27.4272 72.4358 26.7582 71.5854 25.9042C70.735 25.0538 70.0624 24.0575 69.5714 22.9117C69.0804 21.7695 68.8348 20.5526 68.8348 19.2609C68.8348 17.9693 69.0804 16.7559 69.5714 15.6101C70.0624 14.4679 70.7314 13.4681 71.5854 12.6176C72.4358 11.7672 73.4321 11.0947 74.5779 10.6072C75.7201 10.1162 76.937 9.87065 78.2287 9.87065C79.5203 9.87065 80.7551 10.1162 81.8902 10.6072C83.0252 11.0983 84.0216 11.7708 84.8827 12.6319L82.6908 14.8238C82.0894 14.2224 81.4098 13.7634 80.6519 13.4432C79.894 13.1265 79.0862 12.9664 78.2251 12.9664C77.364 12.9664 76.5812 13.1265 75.8269 13.4432C75.0689 13.7598 74.3893 14.2224 73.788 14.8238C73.1866 15.4251 72.7276 16.1048 72.4074 16.8627C72.0907 17.6206 71.9305 18.4176 71.9305 19.2609C71.9305 20.1043 72.0907 20.9084 72.4074 21.6735C72.724 22.4385 73.1866 23.1217 73.788 23.723C74.3893 24.3244 75.0689 24.7798 75.8269 25.0894C76.5848 25.399 77.3818 25.5555 78.2251 25.5555C79.0684 25.5555 79.894 25.4025 80.6519 25.0894C81.4098 24.7798 82.0894 24.3244 82.6908 23.723L84.8827 25.89V25.8936Z" fill="#010101"/>
<path d="M101.699 10.2621V28.3203H98.6034V20.8373H91.0954V28.3203H87.9997V10.2621H91.0954V17.7451H98.6034V10.2621H101.699Z" fill="#010101"/>
<path d="M125.184 28.3203H121.778L120.387 25.2246L118.992 22.1289L115.327 14.0267L111.666 22.1289H116.359L117.754 25.2246H110.271L108.876 28.3203H105.471L113.623 10.2621H117.028L125.18 28.3203H125.184Z" fill="#DB3027"/>
<path d="M138.218 10.778C139.008 11.1232 139.698 11.5857 140.281 12.1729C140.865 12.7564 141.331 13.4432 141.676 14.2224C142.021 15.0053 142.192 15.845 142.192 16.7381C142.192 17.6313 142.021 18.4746 141.676 19.2645C141.331 20.0544 140.869 20.7447 140.281 21.3283C139.698 21.9119 139.008 22.378 138.218 22.7232C137.428 23.0683 136.584 23.2391 135.688 23.2391H133.108L134.371 20.1434H135.688C136.616 20.1434 137.417 19.8089 138.086 19.1364C138.759 18.4675 139.093 17.6668 139.093 16.7381C139.093 15.8094 138.759 15.0017 138.086 14.3648C137.417 13.6958 136.616 13.3578 135.688 13.3578H132.051V28.3203H128.955V10.2621H135.688C136.581 10.2621 137.424 10.4329 138.218 10.778Z" fill="#010101"/>
<path d="M159.012 13.3578H153.725V28.3203H150.629V13.3578H145.313V10.2621H159.012V13.3578Z" fill="#010101"/>
<path d="M165.485 13.3578V17.7451H172.217L172.993 20.8408H165.485V25.2282H174.541V28.3239H162.389V10.2621H174.541V13.3578H165.485Z" fill="#010101"/>
<path d="M191.41 16.7346C191.41 17.3893 191.321 18.012 191.14 18.6062C190.958 19.2005 190.709 19.7449 190.393 20.243C190.072 20.7412 189.688 21.1931 189.233 21.5987C188.777 22.0044 188.272 22.3353 187.724 22.5915L191.414 28.3168H187.724L184.447 23.2355H182.33L183.593 20.1398H184.934C185.863 20.1398 186.664 19.8054 187.333 19.1329C187.642 18.8055 187.884 18.4354 188.055 18.0227C188.226 17.6099 188.315 17.1794 188.315 16.731C188.315 16.2827 188.229 15.8521 188.055 15.4394C187.884 15.0266 187.642 14.6637 187.333 14.3541C186.664 13.6851 185.863 13.3471 184.934 13.3471H181.273V28.3096H178.177V10.2621H184.938C185.831 10.2621 186.671 10.4329 187.454 10.778C188.236 11.1232 188.92 11.5857 189.503 12.1729C190.087 12.7564 190.553 13.4432 190.898 14.2224C191.243 15.0053 191.414 15.845 191.414 16.7381L191.41 16.7346Z" fill="#010101"/>
</svg>
